Coordinates
version=1
nRows=26
nColumns=24
inDegrees=yes

Units are S.I. units (second, meters, Newtons, ...)
Angles are in degrees.

endheader
time	pelvis_tilt	pelvis_list	pelvis_rotation	pelvis_tx	pelvis_ty	pelvis_tz	hip_flexion_r	hip_adduction_r	hip_rotation_r	knee_angle_r	ankle_angle_r	subtalar_angle_r	mtp_angle_r	hip_flexion_l	hip_adduction_l	hip_rotation_l	knee_angle_l	ankle_angle_l	subtalar_angle_l	mtp_angle_l	lumbar_extension	lumbar_bending	lumbar_rotation
      0.62000000	      1.61568302	      3.80628548	      2.39019978	     -0.80335018	      0.97583243	      0.29946220	     23.60134801	     -6.66830655	     -2.91163158	      2.16021481	      1.98457727	     -5.80810031	     -0.04394492	    -24.59195456	      5.68475924	     11.61847385	      0.70797502	     12.92301398	    -10.50514547	     -0.26814476	    -13.46848904	      5.26869153	     -9.90852660
      0.62416667	      1.57336812	      3.67356173	      2.46042257	     -0.79751185	      0.97516063	      0.30001435	     23.69168509	     -6.53183902	     -2.53327475	      1.49794208	      1.71424365	     -6.35243017	     -0.04792094	    -24.68885892	      5.51268324	     11.51159380	      0.27288849	     13.01964784	    -10.39742051	     -0.48974282	    -13.38731835	      5.48706902	     -9.88471683
      0.62833333	      1.55497373	      3.52768602	      2.50862064	     -0.79162016	      0.97453170	      0.30060382	     23.76484195	     -6.36913673	     -2.16646916	      0.79727531	      1.45711663	     -6.86323941	     -0.04943729	    -24.81020916	      5.33270128	     11.37597520	     -0.16180445	     13.09567752	    -10.26174867	     -0.66469862	    -13.33288152	      5.72964399	     -9.87374785
      0.63250000	      1.51830079	      3.38707438	      2.56853400	     -0.78569434	      0.97392559	      0.30118591	     23.85489393	     -6.21249767	     -1.83797721	      0.08198621	      1.14290312	     -7.36692718	     -0.04998758	    -24.88459301	      5.15773126	     11.24380448	     -0.65724915	     13.17634420	    -10.12135788	     -0.80686202	    -13.25298875	      5.96618368	     -9.85713946
      0.63666667	      1.49048240	      3.23644952	      2.62681363	     -0.77972244	      0.97336118	      0.30177343	     23.93113716	     -6.04186623	     -1.54550299	     -0.63740591	      0.77864959	     -7.85729931	     -0.04882730	    -24.96027156	      4.97251774	     11.09867738	     -1.16760765	     13.22543070	     -9.98295606	     -0.91939890	    -13.17972948	      6.21331453	     -9.84336795
      0.64083333	      1.45650010	      3.08299208	      2.68131915	     -0.77371288	      0.97281189	      0.30238582	     24.01693884	     -5.86250822	     -1.28811757	     -1.36823842	      0.36277092	     -8.33584293	     -0.04580768	    -25.01701978	      4.78639876	     10.94487438	     -1.70628122	     13.25610991	     -9.85303967	     -0.99921724	    -13.09167452	      6.46491545	     -9.82460349
      0.64500000	      1.41723954	      2.91406538	      2.73940450	     -0.76764388	      0.97229353	      0.30299192	     24.10810111	     -5.66856145	     -1.09414817	     -2.11040674	     -0.04257570	     -8.72075585	     -0.04363653	    -25.05297524	      4.58607889	     10.81792209	     -2.27528812	     13.25351615	     -9.79558477	     -1.03346541	    -12.99565669	      6.75372260	     -9.79758220
      0.64916667	      1.38394830	      2.77128715	      2.79547877	     -0.76157798	      0.97181029	      0.30363644	     24.19157787	     -5.49363697	     -0.88519842	     -2.83932032	     -0.60771813	     -9.24386075	     -0.03564630	    -25.07723855	      4.40896271	     10.62626372	     -2.87609027	     13.27121043	     -9.57635599	     -1.05457148	    -12.91001273	      6.96632201	     -9.79296659
      0.65333333	      1.34276648	      2.60636333	      2.85018827	     -0.75545998	      0.97134675	      0.30428368	     24.28695660	     -5.29617783	     -0.74402919	     -3.58135461	     -1.15383629	     -9.66867714	     -0.02199242	    -25.07552575	      4.21294835	     10.43805046	     -3.51564772	     13.24470319	     -9.42474066	     -1.04237760	    -12.80825462	      7.22897620	     -9.77293626
      0.65750000	      1.30102539	      2.43489536	      2.90336085	     -0.74930298	      0.97091044	      0.30494241	     24.38609265	     -5.09075494	     -0.64159208	     -4.32921853	     -1.72611894	    -10.06902273	     -0.00356048	    -25.06215318	      4.01121658	     10.23945961	     -4.17094547	     13.18843986	     -9.28429027	     -0.99316407	    -12.70097407	      7.49943632	     -9.75519118
      0.66166667	      1.25286527	      2.24114185	      2.95353142	     -0.74308597	      0.97049623	      0.30559783	     24.49644061	     -4.86537637	     -0.61389742	     -5.08853351	     -2.28008550	    -10.33042238	      0.00489565	    -25.04343407	      3.79051235	     10.06802236	     -4.82090261	     13.04232876	     -9.25126941	     -0.94816780	    -12.58065883	      7.80400376	     -9.71492463
      0.66583333	      1.20032910	      2.07887979	      2.99908905	     -0.73689721	      0.97009311	      0.30632066	     24.61944908	     -4.66046507	     -0.52836089	     -5.85536285	     -2.91251860	    -10.80529815	      0.03326309	    -24.97913470	      3.59917007	      9.82983223	     -5.55102613	     12.97356697	     -9.04381039	     -0.81390163	    -12.46072188	      8.04769744	     -9.71612819
      0.67000000	      1.14779537	      1.88361394	      3.04039909	     -0.73064639	      0.96971867	      0.30704818	     24.74441249	     -4.42434011	     -0.51943517	     -6.63027489	     -3.50282827	    -11.12869585	      0.07219418	    -24.91027933	      3.37619065	      9.57418350	     -6.28766511	     12.83013581	     -8.88829110	     -0.62209979	    -12.33405098	      8.33847475	     -9.68729454
      0.67416667	      1.11512388	      1.67468668	      3.07881220	     -0.72434817	      0.96941016	      0.30775737	     24.85611444	     -4.17996552	     -0.59087565	     -7.42990161	     -4.01642152	    -11.28125219	      0.08623877	    -24.86778463	      3.14391426	      9.38233287	     -7.00503586	     12.54783944	     -8.89921498	     -0.52864604	    -12.22280238	      8.66332077	     -9.64089469
      0.67833333	      1.04366148	      1.46580446	      3.10590387	     -0.71803544	      0.96906978	      0.30853744	     25.01686365	     -3.92470035	     -0.62850787	     -8.24275558	     -4.53801235	    -11.53928061	      0.10731944	    -24.75768977	      2.91425524	      9.13685802	     -7.77057228	     12.28237466	     -8.83767498	     -0.38401864	    -12.06924510	      8.96120202	     -9.60995019
      0.68250000	      0.97104133	      1.27382421	      3.13101755	     -0.71176316	      0.96874176	      0.30937816	     25.19214082	     -3.67903686	     -0.64338282	     -9.08228309	     -5.04682511	    -11.89537806	      0.17143279	    -24.59170114	      2.69684380	      8.81892612	     -8.64726620	     12.12229431	     -8.59494144	      0.01405163	    -11.92428241	      9.22402760	     -9.61541040
      0.68666667	      0.96361458	      1.03363054	      3.14077346	     -0.70538161	      0.96854903	      0.31018750	     25.29357544	     -3.38817566	     -0.75855999	     -9.93499525	     -5.39072861	    -11.98491755	      0.19116949	    -24.54199397	      2.43802543	      8.57679282	     -9.41121816	     11.68567168	     -8.64026156	      0.15411674	    -11.83613697	      9.57967514	     -9.55605301
      0.69083333	      0.91877580	      0.78730139	      3.15433867	     -0.69902955	      0.96833266	      0.31107815	     25.43124706	     -3.08235443	     -0.83900553	    -10.77645042	     -5.78876321	    -12.24008784	      1.00401018	    -24.37792373	      2.15933582	      8.19326638	    -10.30787734	     11.27163323	     -8.47910359	      5.67737068	    -11.73632972	      9.88407002	     -9.43127056
      0.69500000	      0.88663445	      0.55364889	      3.12845070	     -0.69263639	      0.96815062	      0.31199434	     25.58784206	     -2.77846200	     -0.91822152	    -11.70254871	     -5.95889151	    -12.33646877	      1.00683484	    -24.26452850	      1.92015948	      7.92864641	    -11.13368182	     10.77150094	     -8.54972097	      5.70310067	    -11.62724423	     10.22167565	     -9.44144683
      0.69916667	      0.86184491	      0.31129681	      3.10979009	     -0.68624039	      0.96801776	      0.31291785	     25.73020505	     -2.46715020	     -1.02319182	    -12.62641383	     -6.08496246	    -12.44836461	      1.00985822	    -24.12669859	      1.66720971	      7.64548291	    -12.02191661	     10.25248366	     -8.58867957	      5.75339794	    -11.50842969	     10.56388699	     -9.40713118
      0.70333333	      0.80566337	      0.05036519	      3.07182035	     -0.67983238	      0.96787375	      0.31391391	     25.90913231	     -2.12391893	     -1.09067554	    -13.56662758	     -6.11513037	    -12.54056509	      1.01540501	    -23.92825574	      1.39767243	      7.31235398	    -12.95124558	      9.69954198	     -8.56584316	      5.85775329	    -11.39226801	     10.90257633	     -9.36741641
      0.70750000	      0.72828144	     -0.17470064	      3.03597699	     -0.67348269	      0.96771992	      0.31493126	     26.13195613	     -1.82133846	     -1.18048473	    -14.55865099	     -6.05679707	    -12.56761417	      1.02370873	    -23.63296446	      1.15659174	      6.90139994	    -14.02384264	      9.22905056	     -8.40387616	      6.21526965	    -11.23261922	     11.18328084	     -9.32900990
      0.71166667	      0.77585727	     -0.48988426	      2.98748973	     -0.66704303	      0.96779392	      0.31599381	     26.16895317	     -1.40533734	     -1.25896486	    -15.45981361	     -5.95561760	    -12.71519009	      0.97542120	    -23.49938717	      0.80634627	      6.42282200	    -15.00168568	      8.50709974	     -8.25235456	     11.14036158	    -11.22459067	     11.59807209	     -9.30859162
      0.71583333	      0.76454327	     -0.76791855	      2.91105983	     -0.66062946	      0.96782087	      0.31707330	     26.28437958	     -1.01648604	     -1.28416600	    -16.40251873	     -5.71682372	    -12.83336233	      0.97904601	    -23.29721141	      0.53130625	      6.11034285	    -16.00243255	      7.77063333	     -8.38976736	     11.16477667	    -11.14617115	     11.97148682	     -9.21781016
      0.72000000	      0.74894017	     -1.05024617	      2.82569953	     -0.65422181	      0.96787370	      0.31819897	     26.40035563	     -0.61661280	     -1.30397568	    -17.34784397	     -5.41058675	    -12.90354401	      0.97983559	    -23.05584870	      0.24296321	      5.72951191	    -17.05880531	      6.97612912	     -8.42606160	     11.22810266	    -11.07991421	     12.32335695	     -9.13837120
      0.72416667	      0.70386425	     -1.30601215	      2.74332203	     -0.64786858	      0.96789284	      0.31933353	     26.56974005	     -0.25300765	     -1.36834904	    -18.34968009	     -4.98079104	    -12.84922337	      0.95046533	    -22.71684201	     -0.03296559	      5.27551592	    -18.23272644	      6.26356089	     -8.27185144	     11.56259931	    -10.97564479	     12.62455469	     -9.02963248
